# xmcd
#
# Track frame offsets:
#	150
#	12075
#	26695
#	42225
#	58682
#	74400
#	95432
#	112805
#	133745
#	151850
#	169475
#	187557
#	204537
#	222337
#	237980
#	253275
#
# Disc length: 3604 seconds
# Revision: 0
# Processed by: cddbd v1.5.2PL0 Copyright (c) Steve Scherf et al.
# Submitted via: dBpowerAMP V12.0
#
DISCID=dd0e1210
DTITLE=Юрий Шкитун - Что сказано, что спето
DYEAR=1995
DGENRE=Chanson
TTITLE0=Оба-на
TTITLE1=На похмелье
TTITLE2=Ну и что, что было
TTITLE3=Заиграй, музыкант
TTITLE4=Что сказано, что спето
TTITLE5=Чего ты теперь плачешь
TTITLE6=Слепой дождь
TTITLE7=Женщина в черном
TTITLE8=Крошка
TTITLE9=Цветы на твоем пороге
TTITLE10=Помни меня и лето
TTITLE11=Девочка
TTITLE12=Холодно мне
TTITLE13=Чего жалеть
TTITLE14=Одинаково
TTITLE15=Бродяга
EXTD=
EXTT0=
EXTT1=
EXTT2=
EXTT3=
EXTT4=
EXTT5=
EXTT6=
EXTT7=
EXTT8=
EXTT9=
EXTT10=
EXTT11=
EXTT12=
EXTT13=
EXTT14=
EXTT15=
PLAYORDER=
